# xmcd
#
# Track frame offsets:
#	150
#	15724
#	35848
#	51137
#	67169
#	82388
#	100791
#	120448
#	131573
#	148661
#	163225
#	179729
#
# Disc length: 2603 seconds
# Revision: 0
# Processed by: cddbd v1.5.2PL0 Copyright (c) Steve Scherf et al.
# Submitted via: dBpowerAMP V12.0
#
DISCID=b60a290c
DTITLE=Patrick Sylvest - A Little Less Louisiana
DYEAR=2007
DGENRE=Country
TTITLE0=Collard Greens
TTITLE1=Freedom Sings
TTITLE2='Til We Say Goodbye
TTITLE3=Highway 90
TTITLE4=Don't Need to Sing the Blues
TTITLE5=A Little Less Louisiana
TTITLE6=Laughter in the Air
TTITLE7=Cup O' Joe
TTITLE8=Stronger Man
TTITLE9=When I'm Gone
TTITLE10=On Your Mind
TTITLE11=There Are Days
EXTD=
EXTT0=
EXTT1=
EXTT2=
EXTT3=
EXTT4=
EXTT5=
EXTT6=
EXTT7=
EXTT8=
EXTT9=
EXTT10=
EXTT11=
PLAYORDER=
